<svg width="32" height="32" viewBox="0 0 32 32" fill="none" xmlns="http://www.w3.org/2000/svg">
<path d="M26.0003 8.96963C26.0003 8.27595 25.9995 7.81021 25.9702 7.4516C25.9418 7.10394 25.8903 6.93775 25.8344 6.82781C25.6892 6.5429 25.4582 6.31082 25.1733 6.16555C25.0634 6.10954 24.8963 6.05816 24.5483 6.02973C24.1897 6.00044 23.724 5.99968 23.0303 5.99968H18.6673C17.9735 5.99968 17.5067 6.00043 17.1481 6.02973C16.8874 6.05106 16.7287 6.08547 16.6193 6.12468L16.5243 6.16555C16.2393 6.31081 16.0073 6.54277 15.862 6.82781C15.8062 6.93775 15.7558 7.10426 15.7274 7.4516C15.6981 7.81021 15.6974 8.27595 15.6974 8.96963V25.9997H26.0003V8.96963ZM22.6673 18.7268C23.1691 18.7272 23.576 19.1348 23.576 19.6367C23.5759 20.1385 23.1691 20.545 22.6673 20.5454H19.0303C18.5283 20.5453 18.1218 20.1387 18.1217 19.6367C18.1217 19.1346 18.5283 18.7269 19.0303 18.7268H22.6673ZM22.6673 13.8795C23.1691 13.8798 23.576 14.2863 23.576 14.7881C23.5759 15.29 23.1691 15.6965 22.6673 15.6968H19.0303C18.5283 15.6968 18.1217 15.2901 18.1217 14.7881C18.1217 14.2861 18.5283 13.8795 19.0303 13.8795H22.6673ZM22.6673 9.03093C23.1691 9.03125 23.576 9.4377 23.576 9.93959C23.5759 10.4414 23.1691 10.8479 22.6673 10.8482H19.0303C18.5283 10.8482 18.1217 10.4416 18.1217 9.93959C18.1217 9.43753 18.5283 9.03097 19.0303 9.03093H22.6673ZM6.00026 25.9997H13.8789V15.6968H8.97021C8.27676 15.6968 7.81075 15.6976 7.45219 15.7268C7.10419 15.7553 6.93714 15.8067 6.82719 15.8627C6.54224 16.0079 6.31014 16.2399 6.16493 16.5249C6.10906 16.6349 6.05869 16.8015 6.03031 17.1487C6.00101 17.5073 6.00026 17.973 6.00026 18.6667V25.9997ZM27.8188 25.9997H28.1217C28.6236 25.9999 29.0303 26.4076 29.0303 26.9095C29.0301 27.4113 28.6235 27.818 28.1217 27.8182H3.87887C3.3769 27.8182 2.97039 27.4115 2.97021 26.9095C2.97021 26.4075 3.37679 25.9997 3.87887 25.9997H4.18175V18.6667C4.18175 18.0031 4.18108 17.4507 4.21781 17.0009C4.25543 16.5405 4.33661 16.1079 4.54473 15.6992L4.67334 15.4696C4.99353 14.9474 5.45273 14.5222 6.00146 14.2425C6.41015 14.0343 6.84285 13.9532 7.30315 13.9155C7.753 13.8788 8.30643 13.8795 8.97021 13.8795H13.8789V8.96963C13.8789 8.30598 13.8782 7.75356 13.9149 7.30377C13.9525 6.84333 14.0337 6.41088 14.2418 6.00209C14.5614 5.37499 15.0715 4.86494 15.6986 4.54535C16.1073 4.33717 16.5399 4.25607 17.0003 4.21843C17.4501 4.18167 18.0035 4.18237 18.6673 4.18237H23.0303C23.6939 4.18237 24.2464 4.1817 24.6962 4.21843C25.1566 4.25605 25.5891 4.33718 25.9979 4.54535C26.625 4.86493 27.135 5.37492 27.4546 6.00209C27.6628 6.41092 27.7451 6.84328 27.7827 7.30377C27.8195 7.75355 27.8188 8.306 27.8188 8.96963V25.9997Z" fill="#A3ACBA"/>
</svg>
