<svg width="15" height="14" viewBox="0 0 15 14" fill="none" xmlns="http://www.w3.org/2000/svg">
<path d="M14.4121 6.79492C14.3392 6.79492 14.2731 6.78581 14.2139 6.76758C14.1546 6.74935 14.0977 6.71745 14.043 6.67188V6.68555L8 2.14648L1.95703 6.68555C1.90234 6.72201 1.84538 6.74935 1.78613 6.76758C1.72689 6.78581 1.66081 6.79492 1.58789 6.79492C1.42383 6.79492 1.28255 6.73796 1.16406 6.62402C1.04557 6.51009 0.986328 6.36654 0.986328 6.19336C0.986328 6.10221 1.00911 6.01335 1.05469 5.92676C1.10026 5.84017 1.15951 5.76953 1.23242 5.71484L7.64453 0.916016C7.6901 0.879558 7.74479 0.849935 7.80859 0.827148C7.8724 0.804362 7.9362 0.792969 8 0.792969C8.0638 0.792969 8.1276 0.804362 8.19141 0.827148C8.25521 0.849935 8.3099 0.879558 8.35547 0.916016L14.7676 5.71484C14.8405 5.76953 14.8952 5.83789 14.9316 5.91992C14.9681 6.00195 14.9863 6.08854 14.9863 6.17969C14.9863 6.24349 14.9772 6.30501 14.959 6.36426C14.9408 6.4235 14.918 6.47591 14.8906 6.52148C14.8359 6.60352 14.7676 6.6696 14.6855 6.71973C14.6035 6.76986 14.5124 6.79492 14.4121 6.79492ZM12.8125 13.207H3.1875C3.02344 13.207 2.88444 13.1478 2.77051 13.0293C2.65658 12.9108 2.59961 12.7695 2.59961 12.6055V5.00391C2.59961 4.83073 2.65658 4.68717 2.77051 4.57324C2.88444 4.45931 3.02344 4.40234 3.1875 4.40234C3.36068 4.40234 3.50423 4.45931 3.61816 4.57324C3.7321 4.68717 3.78906 4.83073 3.78906 5.00391V12.0039H12.2109V5.00391C12.2109 4.83073 12.2679 4.68717 12.3818 4.57324C12.4958 4.45931 12.6393 4.40234 12.8125 4.40234C12.9766 4.40234 13.1156 4.45931 13.2295 4.57324C13.3434 4.68717 13.4004 4.83073 13.4004 5.00391V12.6055C13.4004 12.7695 13.3434 12.9108 13.2295 13.0293C13.1156 13.1478 12.9766 13.207 12.8125 13.207ZM9.59961 13.207C9.43555 13.207 9.29427 13.1478 9.17578 13.0293C9.05729 12.9108 8.99805 12.7695 8.99805 12.6055V7.60156H7.00195V12.6055C7.00195 12.7695 6.94271 12.9108 6.82422 13.0293C6.70573 13.1478 6.56445 13.207 6.40039 13.207C6.23633 13.207 6.09505 13.1478 5.97656 13.0293C5.85807 12.9108 5.79883 12.7695 5.79883 12.6055V7C5.79883 6.83594 5.85807 6.69466 5.97656 6.57617C6.09505 6.45768 6.23633 6.39844 6.40039 6.39844H9.59961C9.76367 6.39844 9.90495 6.45768 10.0234 6.57617C10.1419 6.69466 10.2012 6.83594 10.2012 7V12.6055C10.2012 12.7695 10.1419 12.9108 10.0234 13.0293C9.90495 13.1478 9.76367 13.207 9.59961 13.207Z" fill="#94A3B8"/>
</svg>
