<svg width="20" height="20" viewBox="0 0 20 20" fill="none" xmlns="http://www.w3.org/2000/svg">
<circle cx="10" cy="10" r="2.5" stroke="#eae7f6ff" stroke-width="1.5"/>
<path d="M11.4711 1.79362C11.1649 1.66675 10.7766 1.66675 10 1.66675C9.22343 1.66675 8.83515 1.66675 8.52886 1.79362C8.12048 1.96277 7.79602 2.28723 7.62687 2.69561C7.54965 2.88203 7.51943 3.09883 7.5076 3.41507C7.49022 3.87982 7.25189 4.30999 6.84913 4.54252C6.44637 4.77505 5.95467 4.76636 5.54351 4.54905C5.26371 4.40116 5.06085 4.31893 4.86079 4.2926C4.42254 4.2349 3.97933 4.35366 3.62864 4.62275C3.36563 4.82456 3.17149 5.16083 2.7832 5.83336C2.39492 6.50589 2.20078 6.84215 2.1575 7.17084C2.09981 7.60908 2.21857 8.0523 2.48766 8.40298C2.61048 8.56305 2.7831 8.6976 3.051 8.86594C3.44484 9.1134 3.69825 9.53496 3.69823 10.0001C3.6982 10.4652 3.4448 10.8867 3.051 11.1341C2.78305 11.3025 2.61041 11.437 2.48758 11.5971C2.21849 11.9478 2.09973 12.391 2.15742 12.8293C2.2007 13.158 2.39484 13.4942 2.78312 14.1667C3.17141 14.8393 3.36555 15.1755 3.62856 15.3774C3.97925 15.6464 4.42246 15.7652 4.86071 15.7075C5.06076 15.6812 5.26361 15.599 5.54338 15.4511C5.95457 15.2338 6.44631 15.2251 6.84909 15.4576C7.25188 15.6902 7.49022 16.1204 7.50761 16.5851C7.51943 16.9014 7.54965 17.1181 7.62687 17.3046C7.79602 17.7129 8.12048 18.0374 8.52886 18.2065C8.83515 18.3334 9.22343 18.3334 10 18.3334C10.7766 18.3334 11.1649 18.3334 11.4711 18.2065C11.8795 18.0374 12.204 17.7129 12.3731 17.3046C12.4504 17.1181 12.4806 16.9013 12.4924 16.5851C12.5098 16.1203 12.7481 15.6902 13.1508 15.4576C13.5536 15.225 14.0454 15.2337 14.4566 15.451C14.7363 15.5989 14.9392 15.6811 15.1392 15.7075C15.5775 15.7651 16.0207 15.6464 16.3714 15.3773C16.6344 15.1755 16.8285 14.8392 17.2168 14.1667C17.6051 13.4942 17.7992 13.1579 17.8425 12.8292C17.9002 12.391 17.7814 11.9478 17.5123 11.5971C17.3895 11.437 17.2169 11.3024 16.949 11.1341C16.5551 10.8866 16.3017 10.4651 16.3018 10C16.3018 9.53496 16.5552 9.11348 16.949 8.86607C17.2169 8.6977 17.3896 8.56313 17.5124 8.40304C17.7815 8.05235 17.9003 7.60914 17.8426 7.17089C17.7993 6.84221 17.6052 6.50594 17.2169 5.83342C16.8286 5.16089 16.6345 4.82462 16.3714 4.6228C16.0208 4.35372 15.5775 4.23496 15.1393 4.29265C14.9392 4.31899 14.7364 4.40121 14.4566 4.54908C14.0454 4.76641 13.5537 4.7751 13.1509 4.54255C12.7481 4.31 12.5098 3.8798 12.4924 3.41503C12.4806 3.09881 12.4503 2.88202 12.3731 2.69561C12.204 2.28723 11.8795 1.96277 11.4711 1.79362Z" stroke="#e6e4edff" stroke-width="1.5"/>
</svg>
