<svg width="20" height="20" viewBox="0 0 20 20" fill="none" xmlns="http://www.w3.org/2000/svg">
<path fill-rule="evenodd" clip-rule="evenodd" d="M9.24414 12.1038C10.7921 11.0732 11.4827 9.15075 10.9444 7.37081C10.4061 5.59086 8.76581 4.37329 6.90625 4.37329C5.04669 4.37329 3.40643 5.59086 2.86813 7.37081C2.32982 9.15075 3.02045 11.0732 4.56836 12.1038C3.20464 12.6064 2.04 13.5365 1.2482 14.7552C1.13495 14.9236 1.12111 15.1398 1.21199 15.3212C1.30288 15.5026 1.48439 15.621 1.68702 15.6311C1.88965 15.6411 2.082 15.5413 2.19039 15.3698C3.22807 13.7738 5.00258 12.8109 6.90625 12.8109C8.80992 12.8109 10.5844 13.7738 11.6221 15.3698C11.7938 15.6249 12.1385 15.6949 12.3961 15.5269C12.6537 15.3589 12.7286 15.0152 12.5643 14.7552C11.7725 13.5365 10.6079 12.6064 9.24414 12.1038ZM3.8125 8.59375C3.8125 6.88512 5.19762 5.5 6.90625 5.5C8.61488 5.5 10 6.88512 10 8.59375C10 10.3024 8.61488 11.6875 6.90625 11.6875C5.19842 11.6856 3.81444 10.3016 3.8125 8.59375ZM18.588 15.5336C18.3278 15.7033 17.9793 15.6299 17.8096 15.3698C16.7731 13.7727 14.9977 12.81 13.0938 12.8125C12.7831 12.8125 12.5312 12.5607 12.5312 12.25C12.5312 11.9393 12.7831 11.6875 13.0938 11.6875C14.3397 11.6863 15.4634 10.9378 15.9446 9.78848C16.4258 8.63916 16.1705 7.31335 15.297 6.42484C14.4235 5.53633 13.1022 5.25854 11.9448 5.72008C11.757 5.80129 11.5399 5.77406 11.3779 5.64898C11.2159 5.52391 11.1346 5.32072 11.1657 5.11844C11.1967 4.91615 11.3352 4.74669 11.5272 4.67594C13.5332 3.87593 15.8194 4.72 16.8242 6.63162C17.8291 8.54324 17.228 10.905 15.4316 12.1038C16.7954 12.6064 17.96 13.5365 18.7518 14.7552C18.9215 15.0154 18.8481 15.3639 18.588 15.5336Z" fill="#f0eff2ff"/>
</svg>
